<svg xmlns="http://www.w3.org/2000/svg" width="500" height="500" viewBox="0 0 500 500" version="1.1"><path d="M 247.363 93.458 C 245.543 94.733, 231.614 102.253, 225.258 105.393 C 224.025 106.002, 223.012 106.838, 223.008 107.250 C 223.004 107.662, 222.100 108, 221 108 C 219.900 108, 219 108.450, 219 109 C 219 109.550, 218.293 110, 217.429 110 C 215.408 110, 213 112.408, 213 114.429 C 213 115.293, 212.550 116, 212 116 C 211.450 116, 211 116.629, 211 117.398 C 211 118.541, 206.852 126.183, 201.989 134 C 201.475 134.825, 200.276 137.075, 199.323 139 C 198.371 140.925, 196.260 144.750, 194.634 147.500 C 193.007 150.250, 190.013 155.650, 187.980 159.500 C 180.198 174.238, 179.479 175.509, 178.750 175.833 C 178.338 176.017, 178 177.029, 178 178.083 C 178 179.138, 177.550 180, 177 180 C 176.450 180, 176 180.862, 176 181.917 C 176 182.971, 175.624 183.983, 175.164 184.167 C 174.245 184.533, 169.663 192.417, 165.381 201 C 163.872 204.025, 161.810 207.708, 160.798 209.184 C 159.786 210.660, 156.711 216.188, 153.965 221.470 C 148.183 232.588, 146.692 235.309, 145.998 236 C 145.723 236.275, 144.824 237.850, 144.002 239.500 C 143.180 241.150, 140.134 246.736, 137.233 251.914 C 131.973 261.303, 131.965 261.333, 133.915 263.414 C 135.816 265.443, 136.707 266.620, 143.959 276.695 C 145.861 279.338, 148.223 282.372, 149.209 283.439 C 150.194 284.505, 151 285.746, 151 286.198 C 151 286.649, 152.350 288.431, 154 290.157 C 155.650 291.884, 157 293.684, 157 294.157 C 157 294.631, 158.350 296.431, 160 298.157 C 161.650 299.884, 163 301.699, 163 302.190 C 163 302.682, 163.948 304.077, 165.108 305.292 C 166.267 306.506, 168.233 309.075, 169.478 311 C 170.722 312.925, 172.699 315.357, 173.870 316.405 C 175.042 317.453, 176 318.831, 176 319.468 C 176 320.105, 177.350 321.919, 179 323.500 C 180.650 325.081, 182 326.881, 182 327.500 C 182 328.119, 183.350 329.919, 185 331.500 C 186.650 333.081, 188 334.760, 188 335.231 C 188 335.702, 189.160 337.305, 190.578 338.794 C 191.996 340.282, 193.559 342.512, 194.053 343.750 C 195.011 346.152, 197.003 346.829, 196.996 344.750 C 196.994 344.063, 195.934 341.415, 194.641 338.866 C 193.348 336.318, 191.676 332.156, 190.926 329.616 C 190.177 327.077, 189.212 325, 188.782 325 C 188.352 325, 188 324.319, 188 323.486 C 188 322.654, 187.603 321.191, 187.117 320.236 C 186.631 319.281, 185.776 317.375, 185.216 316 C 184.657 314.625, 183.254 311.367, 182.100 308.761 C 180.945 306.154, 180 303.581, 180 303.041 C 180 302.502, 179.100 300.458, 178 298.500 C 176.900 296.542, 176 294.514, 176 293.995 C 176 293.475, 174.611 290.001, 172.913 286.275 C 167.964 275.416, 167.237 273.708, 165.895 269.785 C 164.212 264.866, 160.782 261, 158.102 261 C 156.911 261, 155.683 260.337, 155.371 259.526 C 154.741 257.884, 155.855 256.589, 161 252.978 C 162.925 251.627, 165.804 249.279, 167.398 247.761 C 168.992 246.242, 170.623 245, 171.023 245 C 171.422 245, 173.468 243.425, 175.570 241.500 C 177.671 239.575, 179.757 238, 180.205 238 C 180.652 238, 182.431 236.650, 184.157 235 C 185.884 233.350, 187.684 232, 188.157 232 C 188.631 232, 190.431 230.650, 192.157 229 C 195.878 225.444, 195.937 225.437, 200.500 228 C 202.458 229.100, 204.519 230, 205.079 230 C 205.639 230, 207.959 230.900, 210.236 232 C 212.513 233.100, 215.165 234, 216.129 234 C 217.093 234, 218.160 234.450, 218.500 235 C 218.840 235.550, 219.991 236, 221.059 236 C 222.127 236, 223 236.352, 223 236.782 C 223 237.212, 225.072 238.175, 227.604 238.923 C 230.137 239.671, 233.940 241.119, 236.056 242.141 C 238.172 243.164, 240.545 244, 241.329 244 C 242.113 244, 243.315 244.675, 244 245.500 C 244.685 246.325, 246.225 247, 247.422 247 C 248.620 247, 250.053 247.453, 250.607 248.007 C 251.284 248.684, 253.566 248.076, 257.557 246.155 C 260.826 244.582, 265.300 242.497, 267.500 241.522 C 269.700 240.547, 275.169 238.006, 279.652 235.875 C 284.136 233.744, 288.524 232, 289.402 232 C 290.281 232, 291 231.550, 291 231 C 291 230.450, 291.661 230, 292.470 230 C 293.278 230, 295.542 229.100, 297.500 228 C 302.314 225.296, 304.153 225.474, 307.843 229 C 309.569 230.650, 311.341 232, 311.781 232 C 312.220 232, 314.569 233.800, 317 236 C 319.431 238.200, 321.806 240, 322.277 240 C 322.748 240, 324.791 241.571, 326.817 243.491 C 328.843 245.412, 330.848 246.987, 331.272 246.991 C 331.697 246.996, 333.947 248.688, 336.272 250.750 C 338.598 252.813, 341.400 254.998, 342.500 255.607 C 345.654 257.353, 345.562 259.831, 342.316 260.568 C 334.925 262.244, 331 265.916, 331 271.154 C 331 272.169, 330.550 273, 330 273 C 329.450 273, 329 273.873, 329 274.941 C 329 276.009, 328.550 277.160, 328 277.500 C 327.450 277.840, 327 278.753, 327 279.529 C 327 280.975, 323.433 289.484, 319.951 296.345 C 318.878 298.459, 318 300.808, 318 301.564 C 318 302.320, 317.100 304.542, 316 306.500 C 314.900 308.458, 314 310.921, 314 311.971 C 314 313.022, 313.550 314.160, 313 314.500 C 312.450 314.840, 312 315.991, 312 317.059 C 312 318.127, 311.631 319, 311.181 319 C 310.730 319, 309.749 321.250, 309 324 C 308.251 326.750, 307.270 329, 306.819 329 C 306.369 329, 306 329.873, 306 330.941 C 306 332.009, 305.550 333.160, 305 333.500 C 304.450 333.840, 304 334.949, 304 335.965 C 304 336.980, 303.019 339.648, 301.821 341.893 C 300.623 344.138, 299.937 346.270, 300.297 346.630 C 301.145 347.478, 304 345.114, 304 343.565 C 304 342.910, 305.350 341.081, 307 339.500 C 308.650 337.919, 310 336.265, 310 335.824 C 310 335.383, 312.137 332.261, 314.750 328.886 C 321.630 319.999, 324.642 315.954, 327.340 311.985 C 328.653 310.052, 330.464 307.860, 331.364 307.113 C 332.264 306.366, 333 305.219, 333 304.565 C 333 303.910, 334.350 302.081, 336 300.500 C 337.650 298.919, 339 297.102, 339 296.461 C 339 295.821, 340.350 293.884, 342 292.157 C 343.650 290.431, 345 288.631, 345 288.157 C 345 287.684, 346.350 285.884, 348 284.157 C 349.650 282.431, 351 280.668, 351 280.241 C 351 279.813, 352.688 277.391, 354.750 274.859 C 356.813 272.326, 359.729 268.734, 361.232 266.877 C 363.865 263.622, 365.128 257, 363.117 257 C 362.631 257, 361.981 256.212, 361.673 255.250 C 361.365 254.287, 359.522 250.800, 357.578 247.500 C 355.634 244.200, 353.735 240.825, 353.359 240 C 352.982 239.175, 351.907 237.375, 350.969 236 C 350.032 234.625, 347.395 229.956, 345.110 225.624 C 342.825 221.291, 340.162 216.566, 339.192 215.124 C 338.222 213.681, 336.779 211.150, 335.987 209.500 C 335.194 207.850, 333.422 204.700, 332.049 202.500 C 329.403 198.262, 327.337 194.581, 322.541 185.564 C 320.914 182.504, 319.226 180, 318.791 180 C 318.356 180, 318 179.100, 318 178 C 318 176.900, 317.550 176, 317 176 C 316.450 176, 316 175.100, 316 174 C 316 172.900, 315.663 171.996, 315.250 171.992 C 314.837 171.988, 314.003 170.975, 313.397 169.742 C 311.073 165.022, 305.830 155.500, 305.009 154.510 C 302.673 151.696, 295.107 136.052, 295.857 135.588 C 296.331 135.295, 301.507 134.979, 307.359 134.885 C 313.212 134.791, 317.983 134.440, 317.962 134.107 C 317.913 133.324, 310.521 128.115, 306 125.677 C 304.075 124.639, 301.571 122.937, 300.436 121.895 C 299.300 120.853, 298.078 120, 297.719 120 C 297.123 120, 285.841 113.073, 283.500 111.270 C 282.950 110.847, 281.262 109.861, 279.750 109.081 C 278.238 108.301, 277 107.288, 277 106.831 C 277 106.374, 276.100 106, 275 106 C 273.900 106, 273 105.626, 273 105.169 C 273 104.712, 271.762 103.699, 270.250 102.919 C 267.374 101.435, 260.417 97.085, 255.790 93.878 C 252.535 91.622, 250.154 91.503, 247.363 93.458 M 342 147 C 342 147.550, 342.675 148, 343.500 148 C 344.325 148, 345 147.550, 345 147 C 345 146.450, 344.325 146, 343.500 146 C 342.675 146, 342 146.450, 342 147 M 186 258.405 C 186 259.179, 186.888 261.541, 187.973 263.655 C 189.059 265.770, 191.084 270.087, 192.473 273.250 C 193.863 276.413, 196.094 281.421, 197.431 284.380 L 199.863 289.759 213.181 290.211 C 220.507 290.459, 226.950 290.506, 227.500 290.315 C 228.050 290.125, 229.288 288.738, 230.251 287.234 C 231.214 285.730, 232.881 283.143, 233.956 281.485 C 235.030 279.827, 235.592 278.012, 235.205 277.452 C 234.817 276.892, 231.350 275.136, 227.500 273.550 C 223.650 271.964, 218.475 269.797, 216 268.734 C 209.983 266.149, 208.134 265.419, 204 264 C 202.075 263.339, 199.375 262.333, 198 261.765 C 196.625 261.197, 194.375 260.290, 193 259.750 C 191.625 259.209, 189.719 258.369, 188.764 257.883 C 186.411 256.686, 186 256.764, 186 258.405 M 310 257.943 C 307.511 259.312, 301.386 261.793, 295 264.017 C 293.075 264.688, 289.592 266.083, 287.261 267.118 C 284.929 268.153, 282.803 269, 282.536 269 C 282.269 269, 279.226 270.271, 275.775 271.824 C 272.324 273.377, 268.038 275.231, 266.250 275.945 C 264.462 276.659, 263 277.548, 263 277.921 C 263 278.294, 265.072 281.447, 267.604 284.927 L 272.208 291.254 277.354 290.636 C 280.184 290.296, 286.173 290.013, 290.663 290.009 L 298.827 290 302.519 282.250 C 304.550 277.988, 306.567 273.600, 307.001 272.500 C 307.435 271.400, 308.963 267.980, 310.395 264.900 C 313.898 257.371, 313.811 255.846, 310 257.943 M 374.241 264.986 C 372.861 267.195, 372.590 270, 373.755 270 C 374.171 270, 375.004 268.425, 375.606 266.500 C 376.816 262.635, 376.162 261.910, 374.241 264.986 M 119.190 290.750 C 119.376 291.712, 120.190 292.500, 121 292.500 C 121.810 292.500, 122.624 291.712, 122.810 290.750 C 123.046 289.522, 122.506 289, 121 289 C 119.494 289, 118.954 289.522, 119.190 290.750 M 244.696 296.050 C 235.686 302.696, 211.553 326.467, 212.408 327.852 C 212.790 328.470, 214.349 328.680, 216.039 328.342 C 219.359 327.678, 220.002 329.423, 217.759 333.014 C 216.772 334.595, 216.772 335.405, 217.759 336.986 C 218.442 338.079, 219 339.852, 219 340.927 C 219 342.002, 219.450 343.160, 220 343.500 C 220.568 343.851, 221 348.824, 221 355 C 221 360.985, 221.438 366.153, 221.973 366.484 C 222.509 366.814, 223.734 366.166, 224.696 365.043 C 227.095 362.240, 227.511 362.424, 228.846 366.881 C 230.148 371.227, 233 374.458, 233 371.587 C 233 370.676, 233.744 368.794, 234.654 367.405 C 236.468 364.636, 237.956 365.633, 237.985 369.636 C 237.993 370.810, 238.656 373.035, 239.457 374.580 C 240.778 377.125, 240.973 377.206, 241.551 375.444 C 244.439 366.627, 246.179 365.920, 247.033 373.216 C 247.327 375.723, 248.179 378.510, 248.927 379.412 C 251.127 382.063, 253.830 378.854, 254.200 373.150 C 254.420 369.759, 254.950 368.433, 256.180 368.199 C 257.484 367.952, 258.015 368.919, 258.556 372.528 C 259.171 376.627, 259.428 377.001, 260.730 375.698 C 261.543 374.886, 262.516 372.712, 262.893 370.867 C 263.825 366.309, 266.438 365.964, 267.939 370.199 C 269.067 373.381, 269.162 373.429, 270.578 371.526 C 271.387 370.440, 272.323 367.832, 272.659 365.729 L 273.271 361.906 275.631 364.123 C 276.930 365.343, 278.120 366.152, 278.276 365.921 C 279.588 363.975, 282 357.549, 282 356 C 282 354.937, 281.230 352.453, 280.289 350.480 C 278.927 347.625, 278.822 346.546, 279.774 345.196 C 281.816 342.300, 284 336.854, 284 334.658 C 284 331.087, 271.822 311.003, 265.402 303.987 C 262.048 300.321, 258.463 295.900, 257.436 294.161 C 256.305 292.246, 254.767 291.006, 253.534 291.015 C 252.415 291.023, 248.438 293.289, 244.696 296.050 M 381.748 293.442 C 379.652 294.975, 379.410 297.163, 381.423 296.391 C 382.735 295.888, 384.407 293.074, 383.772 292.439 C 383.621 292.287, 382.710 292.739, 381.748 293.442 M 246.297 303.906 C 242.020 307.828, 237 315.654, 237 318.401 C 237 320.577, 240.278 326.837, 241.723 327.422 C 242.396 327.694, 244.260 326.810, 245.867 325.458 C 249.599 322.318, 251.720 322.358, 255.136 325.630 C 256.645 327.076, 258.485 328.028, 259.224 327.744 C 259.963 327.461, 261.619 325.185, 262.904 322.687 L 265.240 318.145 263.120 315.168 C 261.954 313.531, 261 311.803, 261 311.329 C 261 310.408, 251.742 299.982, 250.964 300.027 C 250.709 300.041, 248.609 301.787, 246.297 303.906 M 357.200 316.200 C 356.540 316.860, 356 318.397, 356 319.617 C 356 320.836, 355.438 322.034, 354.750 322.280 C 354.063 322.525, 353.753 323.003, 354.062 323.342 C 354.372 323.681, 356.603 321.943, 359.021 319.479 C 363.221 315.199, 363.305 315, 360.908 315 C 359.529 315, 357.860 315.540, 357.200 316.200 M 329.391 348.775 C 326.030 351.924, 318.444 358.996, 312.533 364.491 C 290.103 385.341, 285.261 390.401, 285.927 392.296 C 286.436 393.742, 288.859 391.702, 298.394 381.796 C 304.904 375.033, 316.134 363.538, 323.351 356.250 C 337.077 342.389, 339.797 339.023, 329.391 348.775" stroke="none" fill="#fa040c" fill-rule="evenodd"/><path d="M 242.500 76 C 241.505 77.100, 240.197 78.014, 239.595 78.032 C 238.120 78.074, 233 82.646, 233 83.921 C 233 84.480, 232.379 84.699, 231.620 84.408 C 230.862 84.117, 229.334 85.031, 228.226 86.439 C 227.119 87.848, 225.574 89, 224.795 89 C 224.015 89, 222.411 89.900, 221.230 91 C 220.050 92.100, 218.682 93, 218.190 93 C 217.699 93, 215.884 94.350, 214.157 96 C 212.431 97.650, 210.438 99, 209.730 99 C 209.021 99, 207.793 99.900, 207 101 C 206.207 102.100, 204.962 103, 204.234 103 C 202.409 103, 198 107.565, 198 109.455 C 198 110.305, 197.594 111, 197.098 111 C 196.108 111, 193.590 116.753, 193.705 118.750 C 193.745 119.438, 193.153 120, 192.389 120 C 191.625 120, 191 120.900, 191 122 C 191 123.100, 190.617 124, 190.150 124 C 189.682 124, 187.771 127.037, 185.904 130.750 C 184.037 134.463, 182.169 137.650, 181.754 137.833 C 181.339 138.017, 181 139.029, 181 140.083 C 181 141.138, 180.550 142, 180 142 C 179.450 142, 179 142.675, 179 143.500 C 179 144.325, 178.550 145, 178 145 C 177.450 145, 177 145.900, 177 147 C 177 148.100, 176.550 149, 176 149 C 175.450 149, 175 149.900, 175 151 C 175 152.100, 174.550 153, 174 153 C 173.450 153, 173 153.900, 173 155 C 173 156.100, 172.550 157, 172 157 C 171.450 157, 171 157.863, 171 158.917 C 171 159.971, 170.584 160.983, 170.075 161.167 C 169.566 161.350, 169.004 162.175, 168.825 163 C 168.646 163.825, 167.713 165.228, 166.750 166.117 C 165.787 167.007, 165 168.028, 165 168.387 C 165 168.746, 163.875 170.822, 162.500 173 C 161.125 175.178, 160 177.644, 160 178.480 C 160 179.316, 159.550 180, 159 180 C 158.450 180, 158 180.694, 158 181.542 C 158 182.390, 157.100 184.050, 156 185.230 C 154.900 186.411, 154 187.967, 154 188.689 C 154 189.410, 153.550 190, 153 190 C 152.450 190, 152 190.900, 152 192 C 152 193.100, 151.550 194, 151 194 C 150.450 194, 150 194.900, 150 196 C 150 197.100, 149.550 198, 149 198 C 148.450 198, 148 198.694, 148 199.542 C 148 200.390, 147.100 202.050, 146 203.230 C 144.900 204.411, 144 206.192, 144 207.189 C 144 208.185, 143.550 209, 143 209 C 142.450 209, 142 209.900, 142 211 C 142 212.100, 141.550 213, 141 213 C 140.450 213, 140 213.900, 140 215 C 140 216.100, 139.550 217, 139 217 C 138.450 217, 138 217.735, 138 218.633 C 138 219.531, 137.213 220.998, 136.250 221.893 C 135.287 222.789, 134.010 224.417, 133.410 225.511 C 132.811 226.605, 131.123 229.653, 129.660 232.285 C 128.197 234.917, 127 237.730, 127 238.535 C 127 239.341, 126.550 240, 126 240 C 125.450 240, 125 240.801, 125 241.779 C 125 242.758, 124.100 244.207, 123 245 C 121.900 245.793, 121 247.242, 121 248.221 C 121 249.199, 120.550 250, 120 250 C 119.450 250, 119 250.900, 119 252 C 119 253.100, 118.550 254, 118 254 C 117.450 254, 117 255.575, 117 257.500 C 117 259.425, 117.450 261, 118 261 C 118.550 261, 119 262.575, 119 264.500 C 119 266.425, 119.450 268, 120 268 C 120.550 268, 121 269.350, 121 271 C 121 272.650, 121.450 274, 122 274 C 122.550 274, 123 275.602, 123 277.559 C 123 279.677, 123.405 280.868, 124 280.500 C 124.611 280.122, 125 281.656, 125 284.441 C 125 286.948, 124.662 289.004, 124.250 289.008 C 123.838 289.012, 122.992 290.111, 122.372 291.449 C 121.312 293.736, 121.948 294.572, 132.872 305.248 C 139.267 311.499, 160.700 333.194, 180.500 353.461 C 256.381 431.130, 252.675 427.509, 254.649 425.924 C 255.625 425.141, 262.965 417.813, 270.962 409.640 C 280.757 399.628, 285.516 394.045, 285.549 392.526 C 285.605 389.941, 298.237 377.295, 326.377 351.654 C 338.936 340.210, 354 324.608, 354 323.044 C 354 322.470, 354.450 322, 355 322 C 355.550 322, 356 320.965, 356 319.700 C 356 316.689, 357.786 315, 360.971 315 C 362.874 315, 365.798 312.728, 372.230 306.250 C 380.699 297.721, 380.876 297.447, 379.209 295.408 C 378.269 294.258, 375.145 292.233, 372.268 290.908 C 367.534 288.730, 367.034 288.190, 367.018 285.250 C 367.008 283.462, 367.450 282, 368 282 C 368.550 282, 369 281.100, 369 280 C 369 278.900, 369.340 278, 369.757 278 C 370.640 278, 373 270.872, 373 268.204 C 373 267.199, 373.900 265.411, 375 264.230 C 377.110 261.965, 377.889 254, 376 254 C 375.450 254, 375 253.100, 375 252 C 375 250.900, 374.550 250, 374 250 C 373.450 250, 373 249.100, 373 248 C 373 246.900, 372.550 246, 372 246 C 371.450 246, 371 245.137, 371 244.083 C 371 243.029, 370.661 242.017, 370.246 241.833 C 369.831 241.650, 367.938 238.413, 366.040 234.640 C 364.142 230.867, 362.009 227.557, 361.300 227.285 C 360.591 227.013, 360.238 226.424, 360.515 225.976 C 360.792 225.528, 360.339 224.482, 359.509 223.652 C 358.679 222.822, 358 221.436, 358 220.571 C 358 219.707, 357.550 219, 357 219 C 356.450 219, 356 218.100, 356 217 C 356 215.900, 355.550 215, 355 215 C 354.450 215, 354 214.100, 354 213 C 354 211.900, 353.550 211, 353 211 C 352.450 211, 352 210.388, 352 209.640 C 352 207.722, 345.841 196, 344.833 196 C 344.375 196, 344 195.100, 344 194 C 344 192.900, 343.550 192, 343 192 C 342.450 192, 342 191.100, 342 190 C 342 188.900, 341.550 188, 341 188 C 340.450 188, 340 187.100, 340 186 C 340 184.900, 339.550 184, 339 184 C 338.450 184, 338 183.100, 338 182 C 338 180.900, 337.550 180, 337 180 C 336.450 180, 336 179.138, 336 178.083 C 336 177.029, 335.663 176.017, 335.250 175.833 C 334.837 175.650, 333.606 173.700, 332.514 171.500 C 331.421 169.300, 329.846 166.825, 329.014 166 C 328.181 165.175, 327.354 163.825, 327.175 163 C 326.996 162.175, 326.434 161.350, 325.925 161.167 C 325.416 160.983, 325 159.971, 325 158.917 C 325 157.863, 324.550 157, 324 157 C 323.450 157, 323 156.100, 323 155 C 323 153.900, 322.564 153, 322.031 153 C 321.499 153, 321.322 152.325, 321.638 151.500 C 322.042 150.449, 323.680 150, 327.107 150 C 329.798 150, 332 149.550, 332 149 C 332 148.450, 334.250 148, 337 148 C 339.750 148, 342 147.550, 342 147 C 342 146.444, 344.667 146, 348 146 C 353.791 146, 354 145.910, 354 143.406 C 354 141.654, 353.351 140.643, 352 140.290 C 350.900 140.002, 350 139.440, 350 139.041 C 350 138.641, 347.863 137.232, 345.250 135.908 C 342.637 134.585, 339.628 132.714, 338.561 131.751 C 337.495 130.788, 335.907 130, 335.032 130 C 334.157 130, 332.793 129.100, 332 128 C 331.207 126.900, 329.758 126, 328.779 126 C 327.801 126, 327 125.550, 327 125 C 327 124.450, 326.199 124, 325.221 124 C 324.242 124, 322.793 123.100, 322 122 C 321.207 120.900, 319.923 120, 319.147 120 C 318.370 120, 317.007 119.196, 316.117 118.214 C 314.040 115.921, 303.497 109, 302.081 109 C 301.486 109, 301 108.550, 301 108 C 301 107.450, 300.325 107, 299.500 107 C 298.675 107, 298 106.550, 298 106 C 298 105.450, 297.199 105, 296.221 105 C 295.242 105, 293.793 104.100, 293 103 C 292.207 101.900, 290.964 101, 290.237 101 C 289.511 101, 287.950 100.100, 286.770 99 C 285.589 97.900, 284.033 97, 283.311 97 C 282.590 97, 282 96.550, 282 96 C 282 95.450, 281.199 95, 280.221 95 C 279.242 95, 277.793 94.100, 277 93 C 276.207 91.900, 274.533 91, 273.279 91 C 272.026 91, 271 90.566, 271 90.035 C 271 89.133, 257.814 80, 256.511 80 C 256.184 80, 254.950 79.100, 253.770 78 C 252.589 76.900, 251.033 76, 250.311 76 C 249.590 76, 249 75.550, 249 75 C 249 73.225, 244.366 73.938, 242.500 76 M 247.363 93.458 C 245.543 94.733, 231.614 102.253, 225.258 105.393 C 224.025 106.002, 223.012 106.838, 223.008 107.250 C 223.004 107.662, 222.100 108, 221 108 C 219.900 108, 219 108.450, 219 109 C 219 109.550, 218.293 110, 217.429 110 C 215.408 110, 213 112.408, 213 114.429 C 213 115.293, 212.550 116, 212 116 C 211.450 116, 211 116.629, 211 117.398 C 211 118.541, 206.852 126.183, 201.989 134 C 201.475 134.825, 200.276 137.075, 199.323 139 C 198.371 140.925, 196.260 144.750, 194.634 147.500 C 193.007 150.250, 190.013 155.650, 187.980 159.500 C 180.198 174.238, 179.479 175.509, 178.750 175.833 C 178.338 176.017, 178 177.029, 178 178.083 C 178 179.138, 177.550 180, 177 180 C 176.450 180, 176 180.862, 176 181.917 C 176 182.971, 175.624 183.983, 175.164 184.167 C 174.245 184.533, 169.663 192.417, 165.381 201 C 163.872 204.025, 161.810 207.708, 160.798 209.184 C 159.786 210.660, 156.711 216.188, 153.965 221.470 C 148.183 232.588, 146.692 235.309, 145.998 236 C 145.723 236.275, 144.824 237.850, 144.002 239.500 C 143.180 241.150, 140.134 246.736, 137.233 251.914 C 131.973 261.303, 131.965 261.333, 133.915 263.414 C 135.816 265.443, 136.707 266.620, 143.959 276.695 C 145.861 279.338, 148.223 282.372, 149.209 283.439 C 150.194 284.505, 151 285.746, 151 286.198 C 151 286.649, 152.350 288.431, 154 290.157 C 155.650 291.884, 157 293.684, 157 294.157 C 157 294.631, 158.350 296.431, 160 298.157 C 161.650 299.884, 163 301.699, 163 302.190 C 163 302.682, 163.948 304.077, 165.108 305.292 C 166.267 306.506, 168.233 309.075, 169.478 311 C 170.722 312.925, 172.699 315.357, 173.870 316.405 C 175.042 317.453, 176 318.831, 176 319.468 C 176 320.105, 177.350 321.919, 179 323.500 C 180.650 325.081, 182 326.881, 182 327.500 C 182 328.119, 183.350 329.919, 185 331.500 C 186.650 333.081, 188 334.760, 188 335.231 C 188 335.702, 189.160 337.305, 190.578 338.794 C 191.996 340.282, 193.559 342.512, 194.053 343.750 C 195.011 346.152, 197.003 346.829, 196.996 344.750 C 196.994 344.063, 195.934 341.415, 194.641 338.866 C 193.348 336.318, 191.676 332.156, 190.926 329.616 C 190.177 327.077, 189.212 325, 188.782 325 C 188.352 325, 188 324.319, 188 323.486 C 188 322.654, 187.603 321.191, 187.117 320.236 C 186.631 319.281, 185.776 317.375, 185.216 316 C 184.657 314.625, 183.254 311.367, 182.100 308.761 C 180.945 306.154, 180 303.581, 180 303.041 C 180 302.502, 179.100 300.458, 178 298.500 C 176.900 296.542, 176 294.514, 176 293.995 C 176 293.475, 174.611 290.001, 172.913 286.275 C 167.964 275.416, 167.237 273.708, 165.895 269.785 C 164.212 264.866, 160.782 261, 158.102 261 C 156.911 261, 155.683 260.337, 155.371 259.526 C 154.741 257.884, 155.855 256.589, 161 252.978 C 162.925 251.627, 165.804 249.279, 167.398 247.761 C 168.992 246.242, 170.623 245, 171.023 245 C 171.422 245, 173.468 243.425, 175.570 241.500 C 177.671 239.575, 179.757 238, 180.205 238 C 180.652 238, 182.431 236.650, 184.157 235 C 185.884 233.350, 187.684 232, 188.157 232 C 188.631 232, 190.431 230.650, 192.157 229 C 195.878 225.444, 195.937 225.437, 200.500 228 C 202.458 229.100, 204.519 230, 205.079 230 C 205.639 230, 207.959 230.900, 210.236 232 C 212.513 233.100, 215.165 234, 216.129 234 C 217.093 234, 218.160 234.450, 218.500 235 C 218.840 235.550, 219.991 236, 221.059 236 C 222.127 236, 223 236.352, 223 236.782 C 223 237.212, 225.072 238.175, 227.604 238.923 C 230.137 239.671, 233.940 241.119, 236.056 242.141 C 238.172 243.164, 240.545 244, 241.329 244 C 242.113 244, 243.315 244.675, 244 245.500 C 244.685 246.325, 246.225 247, 247.422 247 C 248.620 247, 250.053 247.453, 250.607 248.007 C 251.284 248.684, 253.566 248.076, 257.557 246.155 C 260.826 244.582, 265.300 242.497, 267.500 241.522 C 269.700 240.547, 275.169 238.006, 279.652 235.875 C 284.136 233.744, 288.524 232, 289.402 232 C 290.281 232, 291 231.550, 291 231 C 291 230.450, 291.661 230, 292.470 230 C 293.278 230, 295.542 229.100, 297.500 228 C 302.314 225.296, 304.153 225.474, 307.843 229 C 309.569 230.650, 311.341 232, 311.781 232 C 312.220 232, 314.569 233.800, 317 236 C 319.431 238.200, 321.806 240, 322.277 240 C 322.748 240, 324.791 241.571, 326.817 243.491 C 328.843 245.412, 330.848 246.987, 331.272 246.991 C 331.697 246.996, 333.947 248.688, 336.272 250.750 C 338.598 252.813, 341.400 254.998, 342.500 255.607 C 345.654 257.353, 345.562 259.831, 342.316 260.568 C 334.925 262.244, 331 265.916, 331 271.154 C 331 272.169, 330.550 273, 330 273 C 329.450 273, 329 273.873, 329 274.941 C 329 276.009, 328.550 277.160, 328 277.500 C 327.450 277.840, 327 278.753, 327 279.529 C 327 280.975, 323.433 289.484, 319.951 296.345 C 318.878 298.459, 318 300.808, 318 301.564 C 318 302.320, 317.100 304.542, 316 306.500 C 314.900 308.458, 314 310.921, 314 311.971 C 314 313.022, 313.550 314.160, 313 314.500 C 312.450 314.840, 312 315.991, 312 317.059 C 312 318.127, 311.631 319, 311.181 319 C 310.730 319, 309.749 321.250, 309 324 C 308.251 326.750, 307.270 329, 306.819 329 C 306.369 329, 306 329.873, 306 330.941 C 306 332.009, 305.550 333.160, 305 333.500 C 304.450 333.840, 304 334.949, 304 335.965 C 304 336.980, 303.019 339.648, 301.821 341.893 C 300.623 344.138, 299.937 346.270, 300.297 346.630 C 301.145 347.478, 304 345.114, 304 343.565 C 304 342.910, 305.350 341.081, 307 339.500 C 308.650 337.919, 310 336.265, 310 335.824 C 310 335.383, 312.137 332.261, 314.750 328.886 C 321.630 319.999, 324.642 315.954, 327.340 311.985 C 328.653 310.052, 330.464 307.860, 331.364 307.113 C 332.264 306.366, 333 305.219, 333 304.565 C 333 303.910, 334.350 302.081, 336 300.500 C 337.650 298.919, 339 297.102, 339 296.461 C 339 295.821, 340.350 293.884, 342 292.157 C 343.650 290.431, 345 288.631, 345 288.157 C 345 287.684, 346.350 285.884, 348 284.157 C 349.650 282.431, 351 280.668, 351 280.241 C 351 279.813, 352.688 277.391, 354.750 274.859 C 356.813 272.326, 359.729 268.734, 361.232 266.877 C 363.865 263.622, 365.128 257, 363.117 257 C 362.631 257, 361.981 256.212, 361.673 255.250 C 361.365 254.287, 359.522 250.800, 357.578 247.500 C 355.634 244.200, 353.735 240.825, 353.359 240 C 352.982 239.175, 351.907 237.375, 350.969 236 C 350.032 234.625, 347.395 229.956, 345.110 225.624 C 342.825 221.291, 340.162 216.566, 339.192 215.124 C 338.222 213.681, 336.779 211.150, 335.987 209.500 C 335.194 207.850, 333.422 204.700, 332.049 202.500 C 329.403 198.262, 327.337 194.581, 322.541 185.564 C 320.914 182.504, 319.226 180, 318.791 180 C 318.356 180, 318 179.100, 318 178 C 318 176.900, 317.550 176, 317 176 C 316.450 176, 316 175.100, 316 174 C 316 172.900, 315.663 171.996, 315.250 171.992 C 314.837 171.988, 314.003 170.975, 313.397 169.742 C 311.073 165.022, 305.830 155.500, 305.009 154.510 C 302.673 151.696, 295.107 136.052, 295.857 135.588 C 296.331 135.295, 301.507 134.979, 307.359 134.885 C 313.212 134.791, 317.983 134.440, 317.962 134.107 C 317.913 133.324, 310.521 128.115, 306 125.677 C 304.075 124.639, 301.571 122.937, 300.436 121.895 C 299.300 120.853, 298.078 120, 297.719 120 C 297.123 120, 285.841 113.073, 283.500 111.270 C 282.950 110.847, 281.262 109.861, 279.750 109.081 C 278.238 108.301, 277 107.288, 277 106.831 C 277 106.374, 276.100 106, 275 106 C 273.900 106, 273 105.626, 273 105.169 C 273 104.712, 271.762 103.699, 270.250 102.919 C 267.374 101.435, 260.417 97.085, 255.790 93.878 C 252.535 91.622, 250.154 91.503, 247.363 93.458 M 186 258.405 C 186 259.179, 186.888 261.541, 187.973 263.655 C 189.059 265.770, 191.084 270.087, 192.473 273.250 C 193.863 276.413, 196.094 281.421, 197.431 284.380 L 199.863 289.759 213.181 290.211 C 220.507 290.459, 226.950 290.506, 227.500 290.315 C 228.050 290.125, 229.288 288.738, 230.251 287.234 C 231.214 285.730, 232.881 283.143, 233.956 281.485 C 235.030 279.827, 235.592 278.012, 235.205 277.452 C 234.817 276.892, 231.350 275.136, 227.500 273.550 C 223.650 271.964, 218.475 269.797, 216 268.734 C 209.983 266.149, 208.134 265.419, 204 264 C 202.075 263.339, 199.375 262.333, 198 261.765 C 196.625 261.197, 194.375 260.290, 193 259.750 C 191.625 259.209, 189.719 258.369, 188.764 257.883 C 186.411 256.686, 186 256.764, 186 258.405 M 310 257.943 C 307.511 259.312, 301.386 261.793, 295 264.017 C 293.075 264.688, 289.592 266.083, 287.261 267.118 C 284.929 268.153, 282.803 269, 282.536 269 C 282.269 269, 279.226 270.271, 275.775 271.824 C 272.324 273.377, 268.038 275.231, 266.250 275.945 C 264.462 276.659, 263 277.548, 263 277.921 C 263 278.294, 265.072 281.447, 267.604 284.927 L 272.208 291.254 277.354 290.636 C 280.184 290.296, 286.173 290.013, 290.663 290.009 L 298.827 290 302.519 282.250 C 304.550 277.988, 306.567 273.600, 307.001 272.500 C 307.435 271.400, 308.963 267.980, 310.395 264.900 C 313.898 257.371, 313.811 255.846, 310 257.943 M 244.696 296.050 C 235.686 302.696, 211.553 326.467, 212.408 327.852 C 212.790 328.470, 214.349 328.680, 216.039 328.342 C 219.359 327.678, 220.002 329.423, 217.759 333.014 C 216.772 334.595, 216.772 335.405, 217.759 336.986 C 218.442 338.079, 219 339.852, 219 340.927 C 219 342.002, 219.450 343.160, 220 343.500 C 220.568 343.851, 221 348.824, 221 355 C 221 360.985, 221.438 366.153, 221.973 366.484 C 222.509 366.814, 223.734 366.166, 224.696 365.043 C 227.095 362.240, 227.511 362.424, 228.846 366.881 C 230.148 371.227, 233 374.458, 233 371.587 C 233 370.676, 233.744 368.794, 234.654 367.405 C 236.468 364.636, 237.956 365.633, 237.985 369.636 C 237.993 370.810, 238.656 373.035, 239.457 374.580 C 240.778 377.125, 240.973 377.206, 241.551 375.444 C 244.439 366.627, 246.179 365.920, 247.033 373.216 C 247.327 375.723, 248.179 378.510, 248.927 379.412 C 251.127 382.063, 253.830 378.854, 254.200 373.150 C 254.420 369.759, 254.950 368.433, 256.180 368.199 C 257.484 367.952, 258.015 368.919, 258.556 372.528 C 259.171 376.627, 259.428 377.001, 260.730 375.698 C 261.543 374.886, 262.516 372.712, 262.893 370.867 C 263.825 366.309, 266.438 365.964, 267.939 370.199 C 269.067 373.381, 269.162 373.429, 270.578 371.526 C 271.387 370.440, 272.323 367.832, 272.659 365.729 L 273.271 361.906 275.631 364.123 C 276.930 365.343, 278.120 366.152, 278.276 365.921 C 279.588 363.975, 282 357.549, 282 356 C 282 354.937, 281.230 352.453, 280.289 350.480 C 278.927 347.625, 278.822 346.546, 279.774 345.196 C 281.816 342.300, 284 336.854, 284 334.658 C 284 331.087, 271.822 311.003, 265.402 303.987 C 262.048 300.321, 258.463 295.900, 257.436 294.161 C 256.305 292.246, 254.767 291.006, 253.534 291.015 C 252.415 291.023, 248.438 293.289, 244.696 296.050 M 246.297 303.906 C 242.020 307.828, 237 315.654, 237 318.401 C 237 320.577, 240.278 326.837, 241.723 327.422 C 242.396 327.694, 244.260 326.810, 245.867 325.458 C 249.599 322.318, 251.720 322.358, 255.136 325.630 C 256.645 327.076, 258.485 328.028, 259.224 327.744 C 259.963 327.461, 261.619 325.185, 262.904 322.687 L 265.240 318.145 263.120 315.168 C 261.954 313.531, 261 311.803, 261 311.329 C 261 310.408, 251.742 299.982, 250.964 300.027 C 250.709 300.041, 248.609 301.787, 246.297 303.906" stroke="none" fill="#0b0508" fill-rule="evenodd"/></svg>