<svg xmlns="http://www.w3.org/2000/svg" xmlns:xlink="http://www.w3.org/1999/xlink" version="1.1" width="1000" height="1000" viewBox="0 0 1000 1000" xml:space="preserve">
<desc>Created with Fabric.js 3.5.0</desc>
<defs>
</defs>
<rect x="0" y="0" width="100%" height="100%" fill="rgba(255,255,255,0.01)"/>
<g transform="matrix(2.8075 0 0 2.8075 500.005 494.8354)" id="487079">
<g style="" vector-effect="non-scaling-stroke">
		<g transform="matrix(1 0 0 1 -0.1044 -30.8002)">
<path style="stroke: none; stroke-width: 1; stroke-dasharray: none; stroke-linecap: butt; stroke-dashoffset: 0; stroke-linejoin: miter; stroke-miterlimit: 10; is-custom-font: none; font-file-url: none; fill: rgb(250,4,12); fill-rule: nonzero; opacity: 1;" transform=" translate(-238.4143, -149.4455)" d="M 237.363 23.458 c 2.791 -1.955 5.172 -1.836 8.427 0.42 c 4.627 3.207 11.584 7.557 14.46 9.041 c 1.512 0.78 2.75 1.793 2.75 2.25 c 0 0.457 0.9 0.831 2 0.831 c 1.1 0 2 0.374 2 0.831 c 0 0.457 1.238 1.47 2.75 2.25 c 1.512 0.78 3.2 1.766 3.75 2.189 c 2.341 1.803 13.623 8.73 14.219 8.73 c 0.359 0 1.581 0.853 2.717 1.895 c 1.135 1.042 3.639 2.744 5.564 3.782 c 4.521 2.438 11.913 7.647 11.962 8.43 c 0.021 0.333 -4.75 0.684 -10.603 0.778 c -5.852 0.094 -11.028 0.41 -11.502 0.703 c -0.75 0.464 6.816 16.108 9.152 18.922 c 0.821 0.99 6.064 10.512 8.388 15.232 c 0.606 1.233 1.44 2.246 1.853 2.25 c 0.413 0.004 0.75 0.908 0.75 2.008 c 0 1.1 0.45 2 1 2 c 0.55 0 1 0.9 1 2 c 0 1.1 0.356 2 0.791 2 c 0.435 0 2.123 2.504 3.75 5.564 c 4.796 9.017 6.862 12.698 9.508 16.936 c 1.373 2.2 3.145 5.35 3.938 7 c 0.792 1.65 2.235 4.181 3.205 5.624 c 0.97 1.442 3.633 6.167 5.918 10.5 c 2.285 4.332 4.922 9.001 5.859 10.376 c 0.938 1.375 2.013 3.175 2.39 4 c 0.376 0.825 2.275 4.2 4.219 7.5 c 1.944 3.3 3.787 6.787 4.095 7.75 c 0.308 0.962 0.958 1.75 1.444 1.75 c 2.011 0 0.748 6.622 -1.885 9.877 c -1.503 1.857 -4.419 5.449 -6.482 7.982 c -2.062 2.532 -3.75 4.954 -3.75 5.382 c 0 0.427 -1.35 2.19 -3 3.916 c -1.65 1.727 -3 3.527 -3 4 c 0 0.474 -1.35 2.274 -3 4 c -1.65 1.727 -3 3.664 -3 4.304 c 0 0.641 -1.35 2.458 -3 4.039 c -1.65 1.581 -3 3.41 -3 4.065 c 0 0.654 -0.736 1.801 -1.636 2.548 c -0.9 0.747 -2.711 2.939 -4.024 4.872 c -2.698 3.969 -5.71 8.014 -12.59 16.901 c -2.613 3.375 -4.75 6.497 -4.75 6.938 c 0 0.441 -1.35 2.095 -3 3.676 c -1.65 1.581 -3 3.41 -3 4.065 c 0 1.549 -2.855 3.913 -3.703 3.065 c -0.36 -0.36 0.326 -2.492 1.524 -4.737 c 1.198 -2.245 2.179 -4.913 2.179 -5.928 c 0 -1.016 0.45 -2.125 1 -2.465 c 0.55 -0.34 1 -1.491 1 -2.559 c 0 -1.068 0.369 -1.941 0.819 -1.941 c 0.451 0 1.432 -2.25 2.181 -5 c 0.749 -2.75 1.73 -5 2.181 -5 c 0.45 0 0.819 -0.873 0.819 -1.941 c 0 -1.068 0.45 -2.219 1 -2.559 c 0.55 -0.34 1 -1.478 1 -2.529 c 0 -1.05 0.9 -3.513 2 -5.471 c 1.1 -1.958 2 -4.18 2 -4.936 c 0 -0.756 0.878 -3.105 1.951 -5.219 c 3.482 -6.861 7.049 -15.37 7.049 -16.816 c 0 -0.776 0.45 -1.689 1 -2.029 c 0.55 -0.34 1 -1.491 1 -2.559 c 0 -1.068 0.45 -1.941 1 -1.941 c 0.55 0 1 -0.831 1 -1.846 c 0 -5.238 3.925 -8.91 11.316 -10.586 c 3.246 -0.737 3.338 -3.215 0.184 -4.961 c -1.1 -0.609 -3.902 -2.794 -6.228 -4.857 c -2.325 -2.062 -4.575 -3.754 -5 -3.759 c -0.424 -0.004 -2.429 -1.579 -4.455 -3.5 c -2.026 -1.92 -4.069 -3.491 -4.54 -3.491 c -0.471 0 -2.846 -1.8 -5.277 -4 c -2.431 -2.2 -4.78 -4 -5.219 -4 c -0.44 0 -2.212 -1.35 -3.938 -3 c -3.69 -3.526 -5.529 -3.704 -10.343 -1 c -1.958 1.1 -4.222 2 -5.03 2 c -0.809 0 -1.47 0.45 -1.47 1 c 0 0.55 -0.719 1 -1.598 1 c -0.878 0 -5.266 1.744 -9.75 3.875 c -4.483 2.131 -9.952 4.672 -12.152 5.647 c -2.2 0.975 -6.674 3.06 -9.943 4.633 c -3.991 1.921 -6.273 2.529 -6.95 1.852 c -0.554 -0.554 -1.987 -1.007 -3.185 -1.007 c -1.197 0 -2.737 -0.675 -3.422 -1.5 c -0.685 -0.825 -1.887 -1.5 -2.671 -1.5 c -0.784 0 -3.157 -0.836 -5.273 -1.859 c -2.116 -1.022 -5.919 -2.47 -8.452 -3.218 c -2.532 -0.748 -4.604 -1.711 -4.604 -2.141 c 0 -0.43 -0.873 -0.782 -1.941 -0.782 c -1.068 0 -2.219 -0.45 -2.559 -1 c -0.34 -0.55 -1.407 -1 -2.371 -1 c -0.964 0 -3.616 -0.9 -5.893 -2 c -2.277 -1.1 -4.597 -2 -5.157 -2 c -0.56 0 -2.621 -0.9 -4.579 -2 c -4.563 -2.563 -4.622 -2.556 -8.343 1 c -1.726 1.65 -3.526 3 -4 3 c -0.473 0 -2.273 1.35 -4 3 c -1.726 1.65 -3.505 3 -3.952 3 c -0.448 0 -2.534 1.575 -4.635 3.5 c -2.102 1.925 -4.148 3.5 -4.547 3.5 c -0.4 0 -2.031 1.242 -3.625 2.761 c -1.594 1.518 -4.473 3.866 -6.398 5.217 c -5.145 3.611 -6.259 4.906 -5.629 6.548 c 0.312 0.811 1.54 1.474 2.731 1.474 c 2.68 0 6.11 3.866 7.793 8.785 c 1.342 3.923 2.069 5.631 7.018 16.49 c 1.698 3.726 3.087 7.2 3.087 7.72 c 0 0.519 0.9 2.547 2 4.505 c 1.1 1.958 2 4.002 2 4.541 c 0 0.54 0.945 3.113 2.1 5.72 c 1.154 2.606 2.557 5.864 3.116 7.239 c 0.56 1.375 1.415 3.281 1.901 4.236 c 0.486 0.955 0.883 2.418 0.883 3.25 c 0 0.833 0.352 1.514 0.782 1.514 c 0.43 0 1.395 2.077 2.144 4.616 c 0.75 2.54 2.422 6.702 3.715 9.25 c 1.293 2.549 2.353 5.197 2.355 5.884 c 0.007 2.079 -1.985 1.402 -2.943 -1 c -0.494 -1.238 -2.057 -3.468 -3.475 -4.956 c -1.418 -1.489 -2.578 -3.092 -2.578 -3.563 c 0 -0.471 -1.35 -2.15 -3 -3.731 c -1.65 -1.581 -3 -3.381 -3 -4 c 0 -0.619 -1.35 -2.419 -3 -4 c -1.65 -1.581 -3 -3.395 -3 -4.032 c 0 -0.637 -0.958 -2.015 -2.13 -3.063 c -1.171 -1.048 -3.148 -3.48 -4.392 -5.405 c -1.245 -1.925 -3.211 -4.494 -4.37 -5.708 c -1.16 -1.215 -2.108 -2.61 -2.108 -3.102 c 0 -0.491 -1.35 -2.306 -3 -4.033 c -1.65 -1.726 -3 -3.526 -3 -4 c 0 -0.473 -1.35 -2.273 -3 -4 c -1.65 -1.726 -3 -3.508 -3 -3.959 c 0 -0.452 -0.806 -1.693 -1.791 -2.759 c -0.986 -1.067 -3.348 -4.101 -5.25 -6.744 c -7.252 -10.075 -8.143 -11.252 -10.044 -13.281 c -1.95 -2.081 -1.942 -2.111 3.318 -11.5 c 2.901 -5.178 5.947 -10.764 6.769 -12.414 c 0.822 -1.65 1.721 -3.225 1.996 -3.5 c 0.694 -0.691 2.185 -3.412 7.967 -14.53 c 2.746 -5.282 5.821 -10.81 6.833 -12.286 c 1.012 -1.476 3.074 -5.159 4.583 -8.184 c 4.282 -8.583 8.864 -16.467 9.783 -16.833 c 0.46 -0.184 0.836 -1.196 0.836 -2.25 c 0 -1.055 0.45 -1.917 1 -1.917 c 0.55 0 1 -0.862 1 -1.917 c 0 -1.054 0.338 -2.066 0.75 -2.25 c 0.729 -0.324 1.448 -1.595 9.23 -16.333 c 2.033 -3.85 5.027 -9.25 6.654 -12 c 1.626 -2.75 3.737 -6.575 4.689 -8.5 c 0.953 -1.925 2.152 -4.175 2.666 -5 c 4.863 -7.817 9.011 -15.459 9.011 -16.602 c 0 -0.769 0.45 -1.398 1 -1.398 c 0.55 0 1 -0.707 1 -1.571 c 0 -2.021 2.408 -4.429 4.429 -4.429 c 0.864 0 1.571 -0.45 1.571 -1 c 0 -0.55 0.9 -1 2 -1 c 1.1 0 2.004 -0.338 2.008 -0.75 c 0.004 -0.412 1.017 -1.248 2.25 -1.857 z" stroke-linecap="round"/>
</g>
		<g transform="matrix(1 0 0 1 -0.3147 85.4391)">
<path style="stroke: none; stroke-width: 1; stroke-dasharray: none; stroke-linecap: butt; stroke-dashoffset: 0; stroke-linejoin: miter; stroke-miterlimit: 10; is-custom-font: none; font-file-url: none; fill: rgb(250,4,12); fill-rule: nonzero; opacity: 1;" transform=" translate(-238.204, -265.6849)" d="M 234.696 226.05 c 3.742 -2.761 7.719 -5.027 8.838 -5.035 c 1.233 -0.009 2.771 1.231 3.902 3.146 c 1.027 1.739 4.612 6.16 7.966 9.826 c 6.42 7.016 18.598 27.1 18.598 30.671 c 0 2.196 -2.184 7.642 -4.226 10.538 c -0.952 1.35 -0.847 2.429 0.515 5.284 c 0.941 1.973 1.711 4.457 1.711 5.52 c 0 1.549 -2.412 7.975 -3.724 9.921 c -0.156 0.231 -1.346 -0.578 -2.645 -1.798 l -2.36 -2.217 l -0.612 3.823 c -0.336 2.103 -1.272 4.711 -2.081 5.797 c -1.416 1.903 -1.511 1.855 -2.639 -1.327 c -1.501 -4.235 -4.114 -3.89 -5.046 0.668 c -0.377 1.845 -1.35 4.019 -2.163 4.831 c -1.302 1.303 -1.559 0.929 -2.174 -3.17 c -0.541 -3.609 -1.072 -4.576 -2.376 -4.329 c -1.23 0.234 -1.76 1.56 -1.98 4.951 c -0.37 5.704 -3.073 8.913 -5.273 6.262 c -0.748 -0.902 -1.6 -3.689 -1.894 -6.196 c -0.854 -7.296 -2.594 -6.589 -5.482 2.228 c -0.578 1.762 -0.773 1.681 -2.094 -0.864 c -0.801 -1.545 -1.464 -3.77 -1.472 -4.944 c -0.029 -4.003 -1.517 -5 -3.331 -2.231 c -0.91 1.389 -1.654 3.271 -1.654 4.182 c 0 2.871 -2.852 -0.36 -4.154 -4.706 c -1.335 -4.457 -1.751 -4.641 -4.15 -1.838 c -0.962 1.123 -2.187 1.771 -2.723 1.441 c -0.535 -0.331 -0.973 -5.499 -0.973 -11.484 c 0 -6.176 -0.432 -11.149 -1 -11.5 c -0.55 -0.34 -1 -1.498 -1 -2.573 c 0 -1.075 -0.558 -2.848 -1.241 -3.941 c -0.987 -1.581 -0.987 -2.391 0 -3.972 c 2.243 -3.591 1.6 -5.336 -1.72 -4.672 c -1.69 0.338 -3.249 0.128 -3.631 -0.49 z M 227 248.401 c 0 2.176 3.278 8.436 4.723 9.021 c 0.673 0.272 2.537 -0.612 4.144 -1.964 c 3.732 -3.14 5.853 -3.1 9.269 0.172 c 1.509 1.446 3.349 2.398 4.088 2.114 c 0.739 -0.283 2.395 -2.559 3.68 -5.057 l 2.336 -4.542 l -2.12 -2.977 c -1.166 -1.637 -2.12 -3.365 -2.12 -3.839 c 0 -0.921 -9.258 -11.347 -10.036 -11.302 c -0.255 0.014 -2.355 1.76 -4.667 3.879 z" stroke-linecap="round"/>
</g>
		<g transform="matrix(1 0 0 1 39.4529 23.9229)">
<path style="stroke: none; stroke-width: 1; stroke-dasharray: none; stroke-linecap: butt; stroke-dashoffset: 0; stroke-linejoin: miter; stroke-miterlimit: 10; is-custom-font: none; font-file-url: none; fill: rgb(250,4,12); fill-rule: nonzero; opacity: 1;" transform=" translate(-277.9716, -204.1686)" d="M 300 187.943 c 3.811 -2.097 3.898 -0.572 0.395 6.957 c -1.432 3.08 -2.96 6.5 -3.394 7.6 c -0.434 1.1 -2.451 5.488 -4.482 9.75 l -3.692 7.75 l -8.164 0.009 c -4.49 0.004 -10.479 0.287 -13.309 0.627 l -5.146 0.618 l -4.604 -6.327 c -2.532 -3.48 -4.604 -6.633 -4.604 -7.006 c 0 -0.373 1.462 -1.262 3.25 -1.976 c 1.788 -0.714 6.074 -2.568 9.525 -4.121 c 3.451 -1.553 6.494 -2.824 6.761 -2.824 c 0.267 0 2.393 -0.847 4.725 -1.882 c 2.331 -1.035 5.814 -2.43 7.739 -3.101 z" stroke-linecap="round"/>
</g>
		<g transform="matrix(1 0 0 1 -37.855 23.5044)">
<path style="stroke: none; stroke-width: 1; stroke-dasharray: none; stroke-linecap: butt; stroke-dashoffset: 0; stroke-linejoin: miter; stroke-miterlimit: 10; is-custom-font: none; font-file-url: none; fill: rgb(250,4,12); fill-rule: nonzero; opacity: 1;" transform=" translate(-200.6637, -203.7501)" d="M 176 188.405 c 0 -1.641 0.411 -1.719 2.764 -0.522 c 0.955 0.486 2.861 1.326 4.236 1.867 c 1.375 0.54 3.625 1.447 5 2.015 c 1.375 0.568 4.075 1.574 6 2.235 c 4.134 1.419 5.983 2.149 12 4.734 c 2.475 1.063 7.65 3.23 11.5 4.816 c 3.85 1.586 7.317 3.342 7.705 3.902 c 0.387 0.56 -0.175 2.375 -1.249 4.033 c -1.075 1.658 -2.742 4.245 -3.705 5.749 c -0.963 1.504 -2.201 2.891 -2.751 3.081 c -0.55 0.191 -6.993 0.144 -14.319 -0.104 l -13.318 -0.452 l -2.432 -5.379 c -1.337 -2.959 -3.568 -7.967 -4.958 -11.13 c -1.389 -3.163 -3.414 -7.48 -4.5 -9.595 z" stroke-linecap="round"/>
</g>
		<g transform="matrix(1 0 0 1 -238.5187 -180.2457)">
<path style="stroke: none; stroke-width: 1; stroke-dasharray: none; stroke-linecap: butt; stroke-dashoffset: 0; stroke-linejoin: miter; stroke-miterlimit: 10; is-custom-font: none; font-file-url: none; fill: rgb(250,4,12); fill-rule: nonzero; opacity: 1;" transform=" translate(0, 0)" d="" stroke-linecap="round"/>
</g>
		<g transform="matrix(1 0 0 1 -238.5187 -180.2457)">
<path style="stroke: none; stroke-width: 1; stroke-dasharray: none; stroke-linecap: butt; stroke-dashoffset: 0; stroke-linejoin: miter; stroke-miterlimit: 10; is-custom-font: none; font-file-url: none; fill: rgb(250,4,12); fill-rule: nonzero; opacity: 1;" transform=" translate(0, 0)" d="" stroke-linecap="round"/>
</g>
		<g transform="matrix(1 0 0 1 94.9813 -103.2457)">
<path style="stroke: none; stroke-width: 1; stroke-dasharray: none; stroke-linecap: butt; stroke-dashoffset: 0; stroke-linejoin: miter; stroke-miterlimit: 10; is-custom-font: none; font-file-url: none; fill: rgb(250,4,12); fill-rule: nonzero; opacity: 1;" transform=" translate(-333.5, -77)" d="M 332 77 c 0 -0.55 0.675 -1 1.5 -1 c 0.825 0 1.5 0.45 1.5 1 c 0 0.55 -0.675 1 -1.5 1 z" stroke-linecap="round"/>
</g>
		<g transform="matrix(1 0 0 1 38.0201 141.1905)">
<path style="stroke: none; stroke-width: 1; stroke-dasharray: none; stroke-linecap: butt; stroke-dashoffset: 0; stroke-linejoin: miter; stroke-miterlimit: 10; is-custom-font: none; font-file-url: none; fill: rgb(250,4,12); fill-rule: nonzero; opacity: 1;" transform=" translate(-276.5389, -321.4362)" d="M 275.927 322.296 c -0.16254 -0.46248 0.00299 -1.11346 0.67216 -2.13648 c 0.1129 0.79783 0.31996 1.56538 0.60957 2.29105 c -0.74855 0.41717 -1.11627 0.31549 -1.28174 -0.15457 z" stroke-linecap="round"/>
</g>
		<g transform="matrix(1 0 0 1 0 0)">
<path style="stroke: none; stroke-width: 1; stroke-dasharray: none; stroke-linecap: butt; stroke-dashoffset: 0; stroke-linejoin: miter; stroke-miterlimit: 10; is-custom-font: none; font-file-url: none; fill: rgb(60,60,60); fill-rule: evenodd; opacity: 1;" transform=" translate(-238.5187, -180.2458)" d="M 232.5 6 c 1.866 -2.062 6.5 -2.775 6.5 -1 c 0 0.55 0.59 1 1.311 1 c 0.722 0 2.278 0.9 3.459 2 c 1.18 1.1 2.414 2 2.741 2 c 1.303 0 14.489 9.133 14.489 10.035 c 0 0.531 1.026 0.965 2.279 0.965 c 1.254 0 2.928 0.9 3.721 2 c 0.793 1.1 2.242 2 3.221 2 c 0.978 0 1.779 0.45 1.779 1 c 0 0.55 0.59 1 1.311 1 c 0.722 0 2.278 0.9 3.459 2 c 1.18 1.1 2.741 2 3.467 2 c 0.727 0 1.97 0.9 2.763 2 c 0.793 1.1 2.242 2 3.221 2 c 0.978 0 1.779 0.45 1.779 1 c 0 0.55 0.675 1 1.5 1 c 0.825 0 1.5 0.45 1.5 1 c 0 0.55 0.486 1 1.081 1 c 1.416 0 11.959 6.921 14.036 9.214 c 0.89 0.982 2.253 1.786 3.03 1.786 c 0.776 0 2.06 0.9 2.853 2 c 0.793 1.1 2.242 2 3.221 2 c 0.978 0 1.779 0.45 1.779 1 c 0 0.55 0.801 1 1.779 1 c 0.979 0 2.428 0.9 3.221 2 c 0.793 1.1 2.157 2 3.032 2 c 0.875 0 2.463 0.788 3.529 1.751 c 1.067 0.963 4.076 2.834 6.689 4.157 c 2.613 1.324 4.75 2.733 4.75 3.133 c 0 0.399 0.9 0.961 2 1.249 c 1.351 0.353 2 1.364 2 3.116 c 0 2.504 -0.209 2.594 -6 2.594 c -3.333 0 -6 0.444 -6 1 c 0 0.55 -2.25 1 -5 1 c -2.75 0 -5 0.45 -5 1 c 0 0.55 -2.202 1 -4.893 1 c -3.427 0 -5.065 0.449 -5.469 1.5 c -0.316 0.825 -0.139 1.5 0.393 1.5 c 0.533 0 0.969 0.9 0.969 2 c 0 1.1 0.45 2 1 2 c 0.55 0 1 0.863 1 1.917 c 0 1.054 0.416 2.066 0.925 2.25 c 0.509 0.183 1.071 1.008 1.25 1.833 c 0.179 0.825 1.006 2.175 1.839 3 c 0.832 0.825 2.407 3.3 3.5 5.5 c 1.092 2.2 2.323 4.15 2.736 4.333 c 0.413 0.184 0.75 1.196 0.75 2.25 c 0 1.055 0.45 1.917 1 1.917 c 0.55 0 1 0.9 1 2 c 0 1.1 0.45 2 1 2 c 0.55 0 1 0.9 1 2 c 0 1.1 0.45 2 1 2 c 0.55 0 1 0.9 1 2 c 0 1.1 0.45 2 1 2 c 0.55 0 1 0.9 1 2 c 0 1.1 0.375 2 0.833 2 c 1.008 0 7.167 11.722 7.167 13.64 c 0 0.748 0.45 1.36 1 1.36 c 0.55 0 1 0.9 1 2 c 0 1.1 0.45 2 1 2 c 0.55 0 1 0.9 1 2 c 0 1.1 0.45 2 1 2 c 0.55 0 1 0.707 1 1.571 c 0 0.865 0.679 2.251 1.509 3.081 c 0.83 0.83 1.283 1.876 1.006 2.324 c -0.277 0.448 0.076 1.037 0.785 1.309 c 0.709 0.272 2.842 3.582 4.74 7.355 c 1.898 3.773 3.791 7.01 4.206 7.193 c 0.415 0.184 0.754 1.196 0.754 2.25 c 0 1.054 0.45 1.917 1 1.917 c 0.55 0 1 0.9 1 2 c 0 1.1 0.45 2 1 2 c 0.55 0 1 0.9 1 2 c 0 1.1 0.45 2 1 2 c 1.889 0 1.11 7.965 -1 10.23 c -1.1 1.181 -2 2.969 -2 3.974 c 0 2.668 -2.36 9.796 -3.243 9.796 c -0.417 0 -0.757 0.9 -0.757 2 c 0 1.1 -0.45 2 -1 2 c -0.55 0 -0.992 1.462 -0.982 3.25 c 0.016 2.94 0.516 3.48 5.25 5.658 c 2.877 1.325 6.001 3.35 6.941 4.5 c 1.667 2.039 1.49 2.313 -6.979 10.842 c -6.432 6.478 -9.356 8.75 -11.259 8.75 c -3.185 0 -4.971 1.689 -4.971 4.7 c 0 1.265 -0.45 2.3 -1 2.3 c -0.55 0 -1 0.47 -1 1.044 c 0 1.564 -15.064 17.166 -27.623 28.61 c -28.14 25.641 -40.772 38.287 -40.828 40.872 c -0.033 1.519 -4.792 7.102 -14.587 17.114 c -7.997 8.173 -15.337 15.501 -16.313 16.284 c -1.974 1.585 1.732 5.206 -74.149 -72.463 c -19.8 -20.267 -41.233 -41.962 -47.628 -48.213 c -10.924 -10.676 -11.56 -11.512 -10.5 -13.799 c 0.62 -1.338 1.466 -2.437 1.878 -2.441 c 0.412 -0.004 0.75 -2.06 0.75 -4.567 c 0 -2.785 -0.389 -4.319 -1 -3.941 c -0.595 0.368 -1 -0.823 -1 -2.941 c 0 -1.957 -0.45 -3.559 -1 -3.559 c -0.55 0 -1 -1.35 -1 -3 c 0 -1.65 -0.45 -3 -1 -3 c -0.55 0 -1 -1.575 -1 -3.5 c 0 -1.925 -0.45 -3.5 -1 -3.5 c -0.55 0 -1 -1.575 -1 -3.5 c 0 -1.925 0.45 -3.5 1 -3.5 c 0.55 0 1 -0.9 1 -2 c 0 -1.1 0.45 -2 1 -2 c 0.55 0 1 -0.801 1 -1.779 c 0 -0.979 0.9 -2.428 2 -3.221 c 1.1 -0.793 2 -2.242 2 -3.221 c 0 -0.978 0.45 -1.779 1 -1.779 c 0.55 0 1 -0.659 1 -1.465 c 0 -0.805 1.197 -3.618 2.66 -6.25 c 1.463 -2.632 3.151 -5.68 3.75 -6.774 c 0.6 -1.094 1.877 -2.722 2.84 -3.618 c 0.963 -0.895 1.75 -2.362 1.75 -3.26 c 0 -0.898 0.45 -1.633 1 -1.633 c 0.55 0 1 -0.9 1 -2 c 0 -1.1 0.45 -2 1 -2 c 0.55 0 1 -0.9 1 -2 c 0 -1.1 0.45 -2 1 -2 c 0.55 0 1 -0.815 1 -1.811 c 0 -0.997 0.9 -2.778 2 -3.959 c 1.1 -1.18 2 -2.84 2 -3.688 c 0 -0.848 0.45 -1.542 1 -1.542 c 0.55 0 1 -0.9 1 -2 c 0 -1.1 0.45 -2 1 -2 c 0.55 0 1 -0.9 1 -2 c 0 -1.1 0.45 -2 1 -2 c 0.55 0 1 -0.59 1 -1.311 c 0 -0.722 0.9 -2.278 2 -3.459 c 1.1 -1.18 2 -2.84 2 -3.688 c 0 -0.848 0.45 -1.542 1 -1.542 c 0.55 0 1 -0.684 1 -1.52 c 0 -0.836 1.125 -3.302 2.5 -5.48 c 1.375 -2.178 2.5 -4.254 2.5 -4.613 c 0 -0.359 0.787 -1.38 1.75 -2.27 c 0.963 -0.889 1.896 -2.292 2.075 -3.117 c 0.179 -0.825 0.741 -1.65 1.25 -1.833 c 0.509 -0.184 0.925 -1.196 0.925 -2.25 c 0 -1.054 0.45 -1.917 1 -1.917 c 0.55 0 1 -0.9 1 -2 c 0 -1.1 0.45 -2 1 -2 c 0.55 0 1 -0.9 1 -2 c 0 -1.1 0.45 -2 1 -2 c 0.55 0 1 -0.9 1 -2 c 0 -1.1 0.45 -2 1 -2 c 0.55 0 1 -0.675 1 -1.5 c 0 -0.825 0.45 -1.5 1 -1.5 c 0.55 0 1 -0.862 1 -1.917 c 0 -1.054 0.339 -2.066 0.754 -2.25 c 0.415 -0.183 2.283 -3.37 4.15 -7.083 c 1.867 -3.713 3.778 -6.75 4.246 -6.75 c 0.467 0 0.85 -0.9 0.85 -2 c 0 -1.1 0.625 -2 1.389 -2 c 0.764 0 1.356 -0.562 1.316 -1.25 c -0.115 -1.997 2.403 -7.75 3.393 -7.75 c 0.496 0 0.902 -0.695 0.902 -1.545 c 0 -1.89 4.409 -6.455 6.234 -6.455 c 0.728 0 1.973 -0.9 2.766 -2 c 0.793 -1.1 2.021 -2 2.73 -2 c 0.708 0 2.701 -1.35 4.427 -3 c 1.727 -1.65 3.542 -3 4.033 -3 c 0.492 0 1.86 -0.9 3.04 -2 c 1.181 -1.1 2.785 -2 3.565 -2 c 0.779 0 2.324 -1.152 3.431 -2.561 c 1.108 -1.408 2.636 -2.322 3.394 -2.031 c 0.759 0.291 1.38 0.072 1.38 -0.487 c 0 -1.275 5.12 -5.847 6.595 -5.889 c 0.602 -0.018 1.91 -0.932 2.905 -2.032 M 237.363 23.458 c 2.791 -1.955 5.172 -1.836 8.427 0.42 c 4.627 3.207 11.584 7.557 14.46 9.041 c 1.512 0.78 2.75 1.793 2.75 2.25 c 0 0.457 0.9 0.831 2 0.831 c 1.1 0 2 0.374 2 0.831 c 0 0.457 1.238 1.47 2.75 2.25 c 1.512 0.78 3.2 1.766 3.75 2.189 c 2.341 1.803 13.623 8.73 14.219 8.73 c 0.359 0 1.581 0.853 2.717 1.895 c 1.135 1.042 3.639 2.744 5.564 3.782 c 4.521 2.438 11.913 7.647 11.962 8.43 c 0.021 0.333 -4.75 0.684 -10.603 0.778 c -5.852 0.094 -11.028 0.41 -11.502 0.703 c -0.75 0.464 6.816 16.108 9.152 18.922 c 0.821 0.99 6.064 10.512 8.388 15.232 c 0.606 1.233 1.44 2.246 1.853 2.25 c 0.413 0.004 0.75 0.908 0.75 2.008 c 0 1.1 0.45 2 1 2 c 0.55 0 1 0.9 1 2 c 0 1.1 0.356 2 0.791 2 c 0.435 0 2.123 2.504 3.75 5.564 c 4.796 9.017 6.862 12.698 9.508 16.936 c 1.373 2.2 3.145 5.35 3.938 7 c 0.792 1.65 2.235 4.181 3.205 5.624 c 0.97 1.442 3.633 6.167 5.918 10.5 c 2.285 4.332 4.922 9.001 5.859 10.376 c 0.938 1.375 2.013 3.175 2.39 4 c 0.376 0.825 2.275 4.2 4.219 7.5 c 1.944 3.3 3.787 6.787 4.095 7.75 c 0.308 0.962 0.958 1.75 1.444 1.75 c 2.011 0 0.748 6.622 -1.885 9.877 c -1.503 1.857 -4.419 5.449 -6.482 7.982 c -2.062 2.532 -3.75 4.954 -3.75 5.382 c 0 0.427 -1.35 2.19 -3 3.916 c -1.65 1.727 -3 3.527 -3 4 c 0 0.474 -1.35 2.274 -3 4 c -1.65 1.727 -3 3.664 -3 4.304 c 0 0.641 -1.35 2.458 -3 4.039 c -1.65 1.581 -3 3.41 -3 4.065 c 0 0.654 -0.736 1.801 -1.636 2.548 c -0.9 0.747 -2.711 2.939 -4.024 4.872 c -2.698 3.969 -5.71 8.014 -12.59 16.901 c -2.613 3.375 -4.75 6.497 -4.75 6.938 c 0 0.441 -1.35 2.095 -3 3.676 c -1.65 1.581 -3 3.41 -3 4.065 c 0 1.549 -2.855 3.913 -3.703 3.065 c -0.36 -0.36 0.326 -2.492 1.524 -4.737 c 1.198 -2.245 2.179 -4.913 2.179 -5.928 c 0 -1.016 0.45 -2.125 1 -2.465 c 0.55 -0.34 1 -1.491 1 -2.559 c 0 -1.068 0.369 -1.941 0.819 -1.941 c 0.451 0 1.432 -2.25 2.181 -5 c 0.749 -2.75 1.73 -5 2.181 -5 c 0.45 0 0.819 -0.873 0.819 -1.941 c 0 -1.068 0.45 -2.219 1 -2.559 c 0.55 -0.34 1 -1.478 1 -2.529 c 0 -1.05 0.9 -3.513 2 -5.471 c 1.1 -1.958 2 -4.18 2 -4.936 c 0 -0.756 0.878 -3.105 1.951 -5.219 c 3.482 -6.861 7.049 -15.37 7.049 -16.816 c 0 -0.776 0.45 -1.689 1 -2.029 c 0.55 -0.34 1 -1.491 1 -2.559 c 0 -1.068 0.45 -1.941 1 -1.941 c 0.55 0 1 -0.831 1 -1.846 c 0 -5.238 3.925 -8.91 11.316 -10.586 c 3.246 -0.737 3.338 -3.215 0.184 -4.961 c -1.1 -0.609 -3.902 -2.794 -6.228 -4.857 c -2.325 -2.062 -4.575 -3.754 -5 -3.759 c -0.424 -0.004 -2.429 -1.579 -4.455 -3.5 c -2.026 -1.92 -4.069 -3.491 -4.54 -3.491 c -0.471 0 -2.846 -1.8 -5.277 -4 c -2.431 -2.2 -4.78 -4 -5.219 -4 c -0.44 0 -2.212 -1.35 -3.938 -3 c -3.69 -3.526 -5.529 -3.704 -10.343 -1 c -1.958 1.1 -4.222 2 -5.03 2 c -0.809 0 -1.47 0.45 -1.47 1 c 0 0.55 -0.719 1 -1.598 1 c -0.878 0 -5.266 1.744 -9.75 3.875 c -4.483 2.131 -9.952 4.672 -12.152 5.647 c -2.2 0.975 -6.674 3.06 -9.943 4.633 c -3.991 1.921 -6.273 2.529 -6.95 1.852 c -0.554 -0.554 -1.987 -1.007 -3.185 -1.007 c -1.197 0 -2.737 -0.675 -3.422 -1.5 c -0.685 -0.825 -1.887 -1.5 -2.671 -1.5 c -0.784 0 -3.157 -0.836 -5.273 -1.859 c -2.116 -1.022 -5.919 -2.47 -8.452 -3.218 c -2.532 -0.748 -4.604 -1.711 -4.604 -2.141 c 0 -0.43 -0.873 -0.782 -1.941 -0.782 c -1.068 0 -2.219 -0.45 -2.559 -1 c -0.34 -0.55 -1.407 -1 -2.371 -1 c -0.964 0 -3.616 -0.9 -5.893 -2 c -2.277 -1.1 -4.597 -2 -5.157 -2 c -0.56 0 -2.621 -0.9 -4.579 -2 c -4.563 -2.563 -4.622 -2.556 -8.343 1 c -1.726 1.65 -3.526 3 -4 3 c -0.473 0 -2.273 1.35 -4 3 c -1.726 1.65 -3.505 3 -3.952 3 c -0.448 0 -2.534 1.575 -4.635 3.5 c -2.102 1.925 -4.148 3.5 -4.547 3.5 c -0.4 0 -2.031 1.242 -3.625 2.761 c -1.594 1.518 -4.473 3.866 -6.398 5.217 c -5.145 3.611 -6.259 4.906 -5.629 6.548 c 0.312 0.811 1.54 1.474 2.731 1.474 c 2.68 0 6.11 3.866 7.793 8.785 c 1.342 3.923 2.069 5.631 7.018 16.49 c 1.698 3.726 3.087 7.2 3.087 7.72 c 0 0.519 0.9 2.547 2 4.505 c 1.1 1.958 2 4.002 2 4.541 c 0 0.54 0.945 3.113 2.1 5.72 c 1.154 2.606 2.557 5.864 3.116 7.239 c 0.56 1.375 1.415 3.281 1.901 4.236 c 0.486 0.955 0.883 2.418 0.883 3.25 c 0 0.833 0.352 1.514 0.782 1.514 c 0.43 0 1.395 2.077 2.144 4.616 c 0.75 2.54 2.422 6.702 3.715 9.25 c 1.293 2.549 2.353 5.197 2.355 5.884 c 0.007 2.079 -1.985 1.402 -2.943 -1 c -0.494 -1.238 -2.057 -3.468 -3.475 -4.956 c -1.418 -1.489 -2.578 -3.092 -2.578 -3.563 c 0 -0.471 -1.35 -2.15 -3 -3.731 c -1.65 -1.581 -3 -3.381 -3 -4 c 0 -0.619 -1.35 -2.419 -3 -4 c -1.65 -1.581 -3 -3.395 -3 -4.032 c 0 -0.637 -0.958 -2.015 -2.13 -3.063 c -1.171 -1.048 -3.148 -3.48 -4.392 -5.405 c -1.245 -1.925 -3.211 -4.494 -4.37 -5.708 c -1.16 -1.215 -2.108 -2.61 -2.108 -3.102 c 0 -0.491 -1.35 -2.306 -3 -4.033 c -1.65 -1.726 -3 -3.526 -3 -4 c 0 -0.473 -1.35 -2.273 -3 -4 c -1.65 -1.726 -3 -3.508 -3 -3.959 c 0 -0.452 -0.806 -1.693 -1.791 -2.759 c -0.986 -1.067 -3.348 -4.101 -5.25 -6.744 c -7.252 -10.075 -8.143 -11.252 -10.044 -13.281 c -1.95 -2.081 -1.942 -2.111 3.318 -11.5 c 2.901 -5.178 5.947 -10.764 6.769 -12.414 c 0.822 -1.65 1.721 -3.225 1.996 -3.5 c 0.694 -0.691 2.185 -3.412 7.967 -14.53 c 2.746 -5.282 5.821 -10.81 6.833 -12.286 c 1.012 -1.476 3.074 -5.159 4.583 -8.184 c 4.282 -8.583 8.864 -16.467 9.783 -16.833 c 0.46 -0.184 0.836 -1.196 0.836 -2.25 c 0 -1.055 0.45 -1.917 1 -1.917 c 0.55 0 1 -0.862 1 -1.917 c 0 -1.054 0.338 -2.066 0.75 -2.25 c 0.729 -0.324 1.448 -1.595 9.23 -16.333 c 2.033 -3.85 5.027 -9.25 6.654 -12 c 1.626 -2.75 3.737 -6.575 4.689 -8.5 c 0.953 -1.925 2.152 -4.175 2.666 -5 c 4.863 -7.817 9.011 -15.459 9.011 -16.602 c 0 -0.769 0.45 -1.398 1 -1.398 c 0.55 0 1 -0.707 1 -1.571 c 0 -2.021 2.408 -4.429 4.429 -4.429 c 0.864 0 1.571 -0.45 1.571 -1 c 0 -0.55 0.9 -1 2 -1 c 1.1 0 2.004 -0.338 2.008 -0.75 c 0.004 -0.412 1.017 -1.248 2.25 -1.857 c 6.356 -3.14 20.285 -10.66 22.105 -11.935 M 176 188.405 c 0 -1.641 0.411 -1.719 2.764 -0.522 c 0.955 0.486 2.861 1.326 4.236 1.867 c 1.375 0.54 3.625 1.447 5 2.015 c 1.375 0.568 4.075 1.574 6 2.235 c 4.134 1.419 5.983 2.149 12 4.734 c 2.475 1.063 7.65 3.23 11.5 4.816 c 3.85 1.586 7.317 3.342 7.705 3.902 c 0.387 0.56 -0.175 2.375 -1.249 4.033 c -1.075 1.658 -2.742 4.245 -3.705 5.749 c -0.963 1.504 -2.201 2.891 -2.751 3.081 c -0.55 0.191 -6.993 0.144 -14.319 -0.104 l -13.318 -0.452 l -2.432 -5.379 c -1.337 -2.959 -3.568 -7.967 -4.958 -11.13 c -1.389 -3.163 -3.414 -7.48 -4.5 -9.595 c -1.085 -2.114 -1.973 -4.476 -1.973 -5.25 M 300 187.943 c 3.811 -2.097 3.898 -0.572 0.395 6.957 c -1.432 3.08 -2.96 6.5 -3.394 7.6 c -0.434 1.1 -2.451 5.488 -4.482 9.75 l -3.692 7.75 l -8.164 0.009 c -4.49 0.004 -10.479 0.287 -13.309 0.627 l -5.146 0.618 l -4.604 -6.327 c -2.532 -3.48 -4.604 -6.633 -4.604 -7.006 c 0 -0.373 1.462 -1.262 3.25 -1.976 c 1.788 -0.714 6.074 -2.568 9.525 -4.121 c 3.451 -1.553 6.494 -2.824 6.761 -2.824 c 0.267 0 2.393 -0.847 4.725 -1.882 c 2.331 -1.035 5.814 -2.43 7.739 -3.101 c 6.386 -2.224 12.511 -4.705 15 -6.074 M 234.696 226.05 c 3.742 -2.761 7.719 -5.027 8.838 -5.035 c 1.233 -0.009 2.771 1.231 3.902 3.146 c 1.027 1.739 4.612 6.16 7.966 9.826 c 6.42 7.016 18.598 27.1 18.598 30.671 c 0 2.196 -2.184 7.642 -4.226 10.538 c -0.952 1.35 -0.847 2.429 0.515 5.284 c 0.941 1.973 1.711 4.457 1.711 5.52 c 0 1.549 -2.412 7.975 -3.724 9.921 c -0.156 0.231 -1.346 -0.578 -2.645 -1.798 l -2.36 -2.217 l -0.612 3.823 c -0.336 2.103 -1.272 4.711 -2.081 5.797 c -1.416 1.903 -1.511 1.855 -2.639 -1.327 c -1.501 -4.235 -4.114 -3.89 -5.046 0.668 c -0.377 1.845 -1.35 4.019 -2.163 4.831 c -1.302 1.303 -1.559 0.929 -2.174 -3.17 c -0.541 -3.609 -1.072 -4.576 -2.376 -4.329 c -1.23 0.234 -1.76 1.56 -1.98 4.951 c -0.37 5.704 -3.073 8.913 -5.273 6.262 c -0.748 -0.902 -1.6 -3.689 -1.894 -6.196 c -0.854 -7.296 -2.594 -6.589 -5.482 2.228 c -0.578 1.762 -0.773 1.681 -2.094 -0.864 c -0.801 -1.545 -1.464 -3.77 -1.472 -4.944 c -0.029 -4.003 -1.517 -5 -3.331 -2.231 c -0.91 1.389 -1.654 3.271 -1.654 4.182 c 0 2.871 -2.852 -0.36 -4.154 -4.706 c -1.335 -4.457 -1.751 -4.641 -4.15 -1.838 c -0.962 1.123 -2.187 1.771 -2.723 1.441 c -0.535 -0.331 -0.973 -5.499 -0.973 -11.484 c 0 -6.176 -0.432 -11.149 -1 -11.5 c -0.55 -0.34 -1 -1.498 -1 -2.573 c 0 -1.075 -0.558 -2.848 -1.241 -3.941 c -0.987 -1.581 -0.987 -2.391 0 -3.972 c 2.243 -3.591 1.6 -5.336 -1.72 -4.672 c -1.69 0.338 -3.249 0.128 -3.631 -0.49 c -0.855 -1.385 23.278 -25.156 32.288 -31.802 M 236.297 233.906 c 2.312 -2.119 4.412 -3.865 4.667 -3.879 c 0.778 -0.045 10.036 10.381 10.036 11.302 c 0 0.474 0.954 2.202 2.12 3.839 l 2.12 2.977 l -2.336 4.542 c -1.285 2.498 -2.941 4.774 -3.68 5.057 c -0.739 0.284 -2.579 -0.668 -4.088 -2.114 c -3.416 -3.272 -5.537 -3.312 -9.269 -0.172 c -1.607 1.352 -3.471 2.236 -4.144 1.964 c -1.445 -0.585 -4.723 -6.845 -4.723 -9.021 c 0 -2.747 5.02 -10.573 9.297 -14.495" stroke-linecap="round"/>
</g>
</g>
</g>
</svg>